<?xml version="1.0" encoding="UTF-8"?>
<svg xmlns="http://www.w3.org/2000/svg" width="163.2" height="155.7" version="1.1" viewBox="0 0 163.2 155.7">
  <defs>
    <style>
      .cls-1 {
        fill: #5bba91;
      }
    </style>
  </defs>
  <!-- Generator: Adobe Illustrator 28.7.5, SVG Export Plug-In . SVG Version: 1.2.0 Build 176)  -->
  <g>
    <g id="Layer_1">
      <g id="Layer_1-2" data-name="Layer_1">
        <path class="cls-1" d="M148.8,19.3c-11.5,0-22.8,3.2-32.8,9.1h0c-6.7,4-14,6.8-21.6,8.1V0h-14.4c-11.5,0-22.8,3.2-32.8,9.1-10,5.9-21.2,9.1-32.8,9.1H0v57.3h14.4c11.5,0,22.8-3.2,32.8-9.1s21.2-9.1,32.8-9.1h13.2l-24.4,7.4v16.5c-7.6,1.4-14.9,4.1-21.6,8.1-9.9,6-21.2,9.1-32.8,9.1H0v57.3h14.4c11.5,0,22.8-3.2,32.8-9.1s21.2-9.1,32.8-9.1h14.4v-34.9l-25.6-7.6h14.4c11.5,0,22.8-3.2,32.8-9.1h0c9.9-6,21.2-9.1,32.8-9.1h14.4V19.3h-14.4,0Z"/>
      </g>
    </g>
  </g>
</svg>